<svg width="28" height="28" viewBox="0 0 28 28" fill="none" xmlns="http://www.w3.org/2000/svg">
<circle cx="14" cy="14" r="14" fill="white"/>
<mask id="mask0_1270_4712" style="mask-type:alpha" maskUnits="userSpaceOnUse" x="4" y="4" width="20" height="20">
<rect x="4" y="4" width="20" height="20" fill="#D9D9D9"/>
</mask>
<g mask="url(#mask0_1270_4712)">
<path d="M17.4791 14.8334H8.16659C7.93047 14.8334 7.73256 14.7536 7.57284 14.5938C7.41311 14.4341 7.33325 14.2362 7.33325 14.0001C7.33325 13.764 7.41311 13.5661 7.57284 13.4063C7.73256 13.2466 7.93047 13.1668 8.16659 13.1668H17.4791L13.3958 9.08342C13.2291 8.91676 13.1492 8.72231 13.1562 8.50009C13.1631 8.27787 13.2499 8.08342 13.4166 7.91676C13.5833 7.76398 13.7777 7.68412 13.9999 7.67717C14.2221 7.67023 14.4166 7.75009 14.5833 7.91676L20.0833 13.4168C20.1666 13.5001 20.2256 13.5904 20.2603 13.6876C20.2951 13.7848 20.3124 13.889 20.3124 14.0001C20.3124 14.1112 20.2951 14.2154 20.2603 14.3126C20.2256 14.4098 20.1666 14.5001 20.0833 14.5834L14.5833 20.0834C14.4305 20.2362 14.2395 20.3126 14.0103 20.3126C13.7812 20.3126 13.5833 20.2362 13.4166 20.0834C13.2499 19.9168 13.1666 19.7188 13.1666 19.4897C13.1666 19.2605 13.2499 19.0626 13.4166 18.8959L17.4791 14.8334Z" fill="#1C1B1F"/>
</g>
</svg>
