<svg width="60" height="60" viewBox="0 0 60 60" fill="none" xmlns="http://www.w3.org/2000/svg">
<path d="M43.0898 54.929C43.1273 54.8814 43.1648 54.8338 43.1954 54.7862C43.2022 54.7726 43.2125 54.7624 43.2193 54.7488C43.2499 54.7012 43.2806 54.6536 43.3079 54.606C43.3147 54.5958 43.3181 54.5856 43.3249 54.5754C43.3521 54.5278 43.376 54.4836 43.3964 54.4393C43.3998 54.4325 43.4033 54.4257 43.4067 54.4155C43.4271 54.3713 43.4441 54.3271 43.4612 54.2863C43.4612 54.2795 43.468 54.2693 43.4714 54.2591C43.4884 54.2149 43.5021 54.1741 43.5123 54.1299C43.5123 54.1197 43.5191 54.1095 43.5225 54.0993C43.5327 54.0585 43.5429 54.0177 43.5498 53.9802C43.5498 53.97 43.5532 53.9632 43.5566 53.953C43.5634 53.9156 43.5702 53.8782 43.5736 53.8408C43.5736 53.834 43.5736 53.8272 43.5736 53.817C43.577 53.7796 43.5804 53.7456 43.5838 53.7116C43.5838 53.7082 43.5838 53.7014 43.5838 53.698C43.5838 53.664 43.5838 53.63 43.5838 53.5994C43.5838 53.5653 43.5838 53.5382 43.5838 53.5075V53.5007C43.5838 53.4735 43.5804 53.4463 43.577 53.4225C43.577 53.3953 43.5702 53.3715 43.5668 53.3545C43.5566 53.2967 43.5463 53.2627 43.5463 53.2627C43.5463 53.2627 43.5463 53.2525 43.5429 53.2389C43.5429 53.2321 43.5429 53.2287 43.5395 53.2185C43.5395 53.2015 43.5327 53.1811 43.5293 53.1539C43.5293 53.1403 43.5259 53.1301 43.5225 53.1131C43.5157 53.0757 43.5089 53.0314 43.4986 52.9804C43.4986 52.9668 43.4918 52.9532 43.4918 52.9362C43.4816 52.8852 43.4714 52.8342 43.4612 52.773C43.4544 52.7458 43.451 52.7152 43.4441 52.688C43.4339 52.637 43.4237 52.5859 43.4101 52.5315C43.4033 52.4975 43.3964 52.4635 43.3862 52.4261C43.3692 52.3513 43.3487 52.2697 43.3317 52.1847C43.3215 52.1438 43.3113 52.103 43.301 52.0622C43.284 51.9874 43.2636 51.9092 43.2431 51.8276C43.2295 51.78 43.2159 51.729 43.2057 51.6779C43.1886 51.6065 43.1682 51.5351 43.1477 51.4637C43.1341 51.4093 43.1171 51.3583 43.1034 51.3005C43.0728 51.195 43.0421 51.0896 43.008 50.9774C42.991 50.9162 42.9706 50.8516 42.9501 50.787C42.9229 50.6951 42.8922 50.6033 42.8615 50.5115C42.8411 50.4469 42.8207 50.3823 42.7968 50.3143C42.7696 50.2292 42.7389 50.1442 42.7082 50.0592C42.6844 49.9912 42.6605 49.9266 42.6367 49.8586C42.5924 49.7327 42.5447 49.6035 42.497 49.4743C42.4697 49.3995 42.4391 49.3246 42.4084 49.2498C42.3709 49.1512 42.3301 49.0492 42.2892 48.9472C42.2585 48.8723 42.2279 48.7975 42.1972 48.7227C42.1563 48.6309 42.1188 48.5357 42.0745 48.4439C42.0405 48.369 42.0098 48.2942 41.9757 48.2194C41.9076 48.0732 41.8395 47.9235 41.7645 47.7739C41.7304 47.7025 41.693 47.6311 41.6589 47.5631C41.6078 47.461 41.5533 47.3556 41.4988 47.2536C41.4579 47.1754 41.417 47.1006 41.3761 47.0257C41.3216 46.9271 41.2671 46.8319 41.2126 46.7333C41.1717 46.6585 41.1274 46.5871 41.0831 46.5122C40.9911 46.3558 40.8957 46.2028 40.7935 46.0463C40.7526 45.9851 40.7118 45.9239 40.6675 45.8593C40.5993 45.7539 40.5278 45.6518 40.4562 45.5498C40.4051 45.4784 40.354 45.407 40.2995 45.3356C40.228 45.237 40.1564 45.1417 40.0815 45.0465C40.0304 44.9819 39.9793 44.9139 39.9282 44.8493C39.8089 44.703 39.6863 44.5568 39.5602 44.414C39.5125 44.3596 39.458 44.3052 39.4103 44.2508C39.3217 44.1521 39.2297 44.0569 39.1377 43.9617C39.0764 43.9005 39.0151 43.8393 38.9504 43.778C38.8584 43.6862 38.763 43.5978 38.6642 43.5128C38.6063 43.4584 38.5483 43.404 38.487 43.353C38.3439 43.2305 38.1974 43.1081 38.0475 42.9925C38.0407 42.9891 38.0373 42.9857 38.0305 42.9823C37.8908 42.8735 37.7443 42.7714 37.5944 42.6728C37.5433 42.6388 37.4922 42.598 37.4411 42.564C37.2946 42.4654 37.1379 42.3769 36.9845 42.2851C36.9266 42.2511 36.8721 42.2171 36.8142 42.1831C36.6609 42.0981 36.4973 42.0199 36.3372 41.9451C36.2725 41.9144 36.2112 41.8804 36.1464 41.8498C35.9863 41.7784 35.8194 41.7138 35.6524 41.6526C35.5809 41.6254 35.5127 41.5948 35.4412 41.5676C35.2742 41.5098 35.1005 41.4621 34.9301 41.4111C34.8518 41.3873 34.7734 41.3601 34.6951 41.3397C34.5213 41.2955 34.3407 41.2615 34.1602 41.2241C34.075 41.2071 33.9898 41.1833 33.9046 41.1697C33.7139 41.1391 33.5163 41.1187 33.3187 41.0949C33.2369 41.0847 33.1551 41.0711 33.0734 41.0643C32.7872 41.0405 32.4976 41.0269 32.1978 41.0269C31.915 41.0269 31.639 41.0405 31.3699 41.0609C31.3494 41.0609 31.329 41.0609 31.3085 41.0643C31.053 41.0847 30.8043 41.1187 30.559 41.1561C30.5284 41.1595 30.4977 41.1663 30.467 41.1697C30.2319 41.2105 30.0003 41.2581 29.7754 41.3159C29.7413 41.3261 29.7039 41.3329 29.6698 41.3431C29.4518 41.4009 29.2371 41.4656 29.0259 41.537C28.9884 41.5506 28.9543 41.5608 28.9169 41.5744C28.709 41.6492 28.508 41.7274 28.3104 41.8124C28.2764 41.826 28.2423 41.843 28.2082 41.8566C28.0106 41.9451 27.8198 42.0403 27.6324 42.1389C27.6018 42.1559 27.5745 42.1695 27.5473 42.1865C27.3565 42.2919 27.1725 42.4007 26.9953 42.513C26.9749 42.5266 26.9545 42.5402 26.934 42.5538C26.75 42.6728 26.5695 42.7986 26.3991 42.9279C26.3889 42.9347 26.3787 42.9415 26.3685 42.9517C26.2765 43.0231 26.1845 43.0945 26.0925 43.1659C26.0346 43.2101 25.9835 43.2611 25.929 43.3053C25.8779 43.3496 25.8267 43.3904 25.7756 43.4346C25.6257 43.5672 25.4758 43.7032 25.3327 43.8427C25.3157 43.8597 25.2987 43.8767 25.2816 43.8937C25.1454 44.0263 25.0159 44.1657 24.8864 44.3052C24.8387 44.3562 24.7944 44.4072 24.7501 44.4582C24.6513 44.5704 24.5525 44.6826 24.4606 44.7983C24.4197 44.8459 24.3822 44.8935 24.3413 44.9411C24.2153 45.0975 24.0926 45.254 23.9768 45.4138C23.9495 45.4512 23.9223 45.4886 23.895 45.526C23.803 45.6553 23.711 45.7845 23.6224 45.9171C23.585 45.9749 23.5475 46.0293 23.51 46.0871C23.4282 46.213 23.3499 46.3354 23.2715 46.4612C23.2443 46.5088 23.2136 46.553 23.1864 46.6007C23.0876 46.7673 22.9922 46.9305 22.9002 47.0972C22.8729 47.1482 22.8457 47.1958 22.8184 47.2468C22.7503 47.3692 22.6855 47.495 22.6242 47.6175C22.5935 47.6753 22.5663 47.7331 22.5356 47.7909C22.4675 47.9235 22.4062 48.0562 22.3414 48.1888C22.3244 48.2262 22.3074 48.2602 22.2903 48.2976C22.2154 48.4609 22.1438 48.6241 22.0723 48.7839C22.0484 48.8383 22.028 48.8894 22.0041 48.9438C21.9564 49.0594 21.9087 49.175 21.861 49.2872C21.8406 49.3416 21.8168 49.3927 21.7963 49.4471C21.7384 49.5933 21.6839 49.7361 21.6328 49.8756C21.6226 49.9028 21.6123 49.93 21.6021 49.9572C21.551 50.0932 21.5067 50.2258 21.4624 50.3585C21.4454 50.4095 21.4284 50.4571 21.4113 50.5081C21.3773 50.6101 21.3432 50.7121 21.3125 50.8108C21.2989 50.855 21.2853 50.8958 21.2716 50.94C21.2308 51.0726 21.1899 51.2018 21.1558 51.3277C21.149 51.3583 21.1388 51.3821 21.132 51.4127C21.1047 51.5113 21.0774 51.6099 21.0502 51.7018C21.04 51.7426 21.0297 51.78 21.0195 51.8174C20.9957 51.9024 20.9752 51.984 20.9548 52.0622C20.948 52.0894 20.9412 52.12 20.9344 52.1473C20.9105 52.2459 20.8867 52.3411 20.8662 52.4295C20.8594 52.4567 20.856 52.4805 20.8492 52.5077C20.8355 52.5723 20.8219 52.6302 20.8083 52.688C20.8015 52.7152 20.7981 52.739 20.7913 52.7628C20.7776 52.8206 20.7674 52.875 20.7572 52.9226C20.7572 52.9328 20.7538 52.9464 20.7504 52.9566C20.7402 53.0144 20.7299 53.062 20.7231 53.1029C20.7231 53.1165 20.7197 53.1267 20.7163 53.1403C20.7129 53.1675 20.7061 53.1879 20.7061 53.2049C20.7061 53.2151 20.7061 53.2219 20.7027 53.2287C20.7027 53.2423 20.6993 53.2525 20.6993 53.2525C20.6993 53.2525 20.6993 53.2593 20.6925 53.2763C20.6925 53.2899 20.6856 53.3137 20.6822 53.3409C20.6822 53.3409 20.6822 53.3409 20.6822 53.3443C20.6788 53.3715 20.6754 53.4055 20.672 53.4463C20.672 53.4463 20.672 53.4463 20.672 53.4497C20.6686 53.5143 20.6686 53.5892 20.6754 53.6776C20.6754 53.681 20.6754 53.6878 20.6754 53.6912C20.6754 53.7218 20.6822 53.7558 20.6856 53.7898C20.6856 53.7966 20.6856 53.8034 20.6856 53.8068C20.6959 53.8782 20.7129 53.9496 20.7333 54.0313C20.7333 54.0381 20.7367 54.0449 20.7402 54.0517C20.7504 54.0891 20.764 54.1299 20.7776 54.1707C20.7776 54.1775 20.7844 54.1843 20.7844 54.1911C20.8015 54.2319 20.8151 54.2727 20.8355 54.3169C20.8355 54.3169 20.8355 54.3169 20.8355 54.3203C20.856 54.3645 20.8764 54.4087 20.9003 54.4529C20.9037 54.4632 20.9105 54.47 20.9139 54.4802C20.9378 54.5244 20.965 54.5686 20.9923 54.6128C20.9957 54.6196 21.0025 54.6298 21.0093 54.6366C21.0366 54.6808 21.0672 54.725 21.1013 54.7692C21.1013 54.7726 21.1047 54.776 21.1081 54.7794C21.1422 54.827 21.1797 54.8746 21.2205 54.9222C21.2274 54.9324 21.2376 54.9427 21.2444 54.9529C21.2853 55.0005 21.3262 55.0481 21.3738 55.0957C21.3807 55.1025 21.3909 55.1127 21.3977 55.1195C21.442 55.1637 21.4897 55.2113 21.5408 55.2555C21.5476 55.2623 21.551 55.2657 21.5578 55.2725C21.6123 55.3201 21.6703 55.3677 21.7282 55.4154C21.7418 55.4256 21.7554 55.4358 21.7656 55.446C21.827 55.4936 21.8917 55.5412 21.9564 55.5888C21.9667 55.5956 21.9803 55.6024 21.9905 55.6126C22.0552 55.6568 22.1234 55.701 22.1949 55.7486C22.2051 55.7554 22.2154 55.7622 22.2256 55.7656C22.3039 55.8132 22.3857 55.8608 22.4675 55.9051C22.4845 55.9153 22.5016 55.9255 22.522 55.9357C22.6072 55.9833 22.6992 56.0275 22.7911 56.0751C22.8048 56.0819 22.8184 56.0887 22.832 56.0955C22.9206 56.1397 23.016 56.1805 23.1114 56.2213C23.125 56.2281 23.1421 56.2349 23.1557 56.2417C23.2613 56.2859 23.3703 56.3302 23.4828 56.371C23.5066 56.3812 23.5305 56.388 23.5577 56.3982C23.6735 56.4424 23.7928 56.4832 23.9154 56.524C23.9325 56.5308 23.9461 56.5342 23.9631 56.541C24.0824 56.5784 24.205 56.6192 24.3311 56.6532C24.3515 56.66 24.3754 56.6668 24.3958 56.6736C24.5321 56.711 24.6718 56.7484 24.8183 56.7858C24.8489 56.7926 24.8796 56.8028 24.9103 56.8097C25.0602 56.8471 25.2135 56.8811 25.3736 56.9185C25.3907 56.9219 25.4077 56.9253 25.4247 56.9287C25.578 56.9627 25.7348 56.9933 25.8983 57.0239C25.929 57.0307 25.9562 57.0341 25.9869 57.0409C26.1572 57.0715 26.3344 57.1021 26.515 57.1293C26.5524 57.1361 26.5899 57.1395 26.6308 57.1463C26.8182 57.1735 27.0124 57.2007 27.21 57.2279C27.2236 57.2279 27.2406 57.2313 27.2577 57.2347C27.4485 57.2585 27.6495 57.2824 27.8539 57.3028C27.8914 57.3062 27.9288 57.3096 27.9697 57.3164C28.181 57.3368 28.399 57.3572 28.6205 57.3742C28.6647 57.3776 28.709 57.381 28.7567 57.3844C28.9884 57.4014 29.2269 57.4184 29.4722 57.432C29.4824 57.432 29.4892 57.432 29.4995 57.432C29.7379 57.4456 29.9866 57.4558 30.2422 57.466C30.2899 57.466 30.3376 57.4694 30.3887 57.4728C30.6442 57.483 30.9031 57.4898 31.1723 57.4932C31.2234 57.4932 31.2779 57.4932 31.3324 57.4932C31.6118 57.4966 31.8979 57.5 32.1944 57.5C32.5316 57.5 32.8587 57.4966 33.179 57.4898C33.213 57.4898 33.2471 57.4898 33.2812 57.4898C33.581 57.483 33.8706 57.4762 34.1568 57.4626C34.2011 57.4626 34.2488 57.4592 34.293 57.4558C34.569 57.4456 34.8348 57.4286 35.0937 57.415C35.138 57.415 35.1823 57.4082 35.2266 57.4048C35.4821 57.3878 35.7308 57.3708 35.9727 57.347C36.0102 57.3436 36.0476 57.3402 36.0885 57.3368C36.3304 57.313 36.5689 57.2892 36.7972 57.2653C36.821 57.2653 36.8449 57.2585 36.8687 57.2551C37.1004 57.2279 37.3218 57.2007 37.5365 57.1667C37.5467 57.1667 37.5569 57.1667 37.5671 57.1633C37.7818 57.1327 37.9896 57.0987 38.1906 57.0647C38.2179 57.0613 38.2485 57.0545 38.2758 57.0511C38.4666 57.0171 38.6471 56.9831 38.8243 56.9457C38.8584 56.9389 38.8924 56.9321 38.9231 56.9253C39.0934 56.8879 39.257 56.8505 39.4137 56.8131C39.4478 56.8063 39.4784 56.796 39.5091 56.7892C39.6658 56.7484 39.8157 56.7076 39.9622 56.6668C39.9895 56.66 40.0133 56.6498 40.0406 56.643C40.1871 56.5988 40.3302 56.5546 40.463 56.5104C40.4801 56.5036 40.4937 56.5002 40.5107 56.4934C40.6402 56.4492 40.7663 56.4016 40.8855 56.3573C40.8991 56.3505 40.9162 56.3472 40.9298 56.3404C41.049 56.2927 41.1649 56.2451 41.2739 56.1941C41.2943 56.1839 41.3148 56.1771 41.3386 56.1669C41.4443 56.1193 41.5431 56.0717 41.635 56.0241C41.6555 56.0139 41.6793 56.0003 41.6998 55.9901C41.7918 55.9425 41.8769 55.8949 41.9621 55.8438C41.9826 55.8336 41.9996 55.82 42.02 55.8098C42.1018 55.7622 42.1802 55.7112 42.2517 55.6602C42.2687 55.65 42.2824 55.6398 42.2994 55.6262C42.3744 55.5752 42.4425 55.5242 42.5106 55.4732C42.5209 55.4664 42.5277 55.4596 42.5379 55.4528C42.5992 55.4052 42.6571 55.3541 42.7116 55.3065C42.7219 55.2963 42.7321 55.2895 42.7423 55.2793C42.7968 55.2283 42.8479 55.1773 42.8956 55.1263C42.9058 55.1161 42.9195 55.1025 42.9297 55.0923C42.974 55.0447 43.0183 54.9937 43.0592 54.9461C43.0694 54.9324 43.0796 54.9222 43.0898 54.9086V54.929Z" fill="#28335E"/>
<path d="M16.7438 29.2672C16.7438 20.9694 23.5066 14.2189 31.8162 14.2189C35.9318 14.2189 39.7748 15.8479 42.6401 18.8031C44.8955 21.1292 48.6125 21.187 50.9429 18.9357C53.2732 16.6844 53.3311 12.9742 51.0757 10.6482C45.9789 5.39402 39.1377 2.5 31.8162 2.5C17.03 2.5 5 14.508 5 29.2672C5 37.8302 9.05088 45.4648 15.3367 50.3687C15.7456 48.8316 16.4815 46.5973 17.7284 44.3324C18.6892 42.5878 19.8135 41.0779 21.0774 39.8128C18.3996 37.0956 16.7404 33.3718 16.7404 29.2672H16.7438Z" fill="#28335E"/>
<path d="M52.6327 36.4325C50.0298 34.5009 46.3537 35.0382 44.4185 37.6364C43.8836 38.3539 43.3181 39.0239 42.9263 39.4694C44.3367 40.8127 45.5769 42.4552 46.6126 44.3766C47.7301 46.4477 48.4183 48.4915 48.8305 50.0048C49.471 49.4811 50.0911 48.9302 50.6839 48.3419C51.3857 47.6515 52.7315 46.1144 53.8388 44.6283C55.7739 42.0301 55.2356 38.3607 52.6327 36.4291V36.4325Z" fill="#28335E"/>
<path d="M32.3818 38.6736C37.4113 38.6736 41.4886 34.6038 41.4886 29.5835C41.4886 24.5631 37.4113 20.4933 32.3818 20.4933C27.3522 20.4933 23.275 24.5631 23.275 29.5835C23.275 34.6038 27.3522 38.6736 32.3818 38.6736Z" fill="#28335E"/>
</svg>
