<svg width="20" height="20" viewBox="0 0 20 20" fill="none" xmlns="http://www.w3.org/2000/svg">
<path d="M10.0038 12.628C10.8506 12.628 11.5691 12.3316 12.1594 11.7388C12.7497 11.146 13.0448 10.4262 13.0448 9.57942C13.0448 8.73261 12.7484 8.01407 12.1556 7.42379C11.5628 6.83352 10.8431 6.53838 9.99625 6.53838C9.14945 6.53838 8.43091 6.83477 7.84063 7.42755C7.25035 8.02032 6.95521 8.74011 6.95521 9.58692C6.95521 10.4337 7.2516 11.1523 7.84438 11.7425C8.43716 12.3328 9.15695 12.628 10.0038 12.628ZM10 11.8332C9.375 11.8332 8.84375 11.6144 8.40625 11.1769C7.96875 10.7394 7.75 10.2082 7.75 9.58317C7.75 8.95817 7.96875 8.42692 8.40625 7.98942C8.84375 7.55192 9.375 7.33317 10 7.33317C10.625 7.33317 11.1563 7.55192 11.5938 7.98942C12.0313 8.42692 12.25 8.95817 12.25 9.58317C12.25 10.2082 12.0313 10.7394 11.5938 11.1769C11.1563 11.6144 10.625 11.8332 10 11.8332ZM10.0023 14.9998C8.19729 14.9998 6.55229 14.5087 5.06729 13.5263C3.58229 12.5439 2.47014 11.2296 1.73083 9.58317C2.47014 7.93678 3.58153 6.62241 5.065 5.64005C6.54847 4.65768 8.19271 4.1665 9.99771 4.1665C11.8027 4.1665 13.4477 4.65768 14.9327 5.64005C16.4177 6.62241 17.5299 7.93678 18.2692 9.58317C17.5299 11.2296 16.4185 12.5439 14.935 13.5263C13.4515 14.5087 11.8073 14.9998 10.0023 14.9998ZM10 14.1665C11.5694 14.1665 13.0104 13.7533 14.3229 12.9269C15.6354 12.1005 16.6389 10.9859 17.3333 9.58317C16.6389 8.18039 15.6354 7.06581 14.3229 6.23942C13.0104 5.41303 11.5694 4.99984 10 4.99984C8.43056 4.99984 6.98959 5.41303 5.67709 6.23942C4.36459 7.06581 3.36111 8.18039 2.66667 9.58317C3.36111 10.9859 4.36459 12.1005 5.67709 12.9269C6.98959 13.7533 8.43056 14.1665 10 14.1665Z" fill="#333333"/>
</svg>
