<svg width="20" height="20" viewBox="0 0 20 20" fill="none" xmlns="http://www.w3.org/2000/svg">
<path d="M12.8719 10.5388L12.2083 9.87524C12.3333 9.14773 12.1272 8.51794 11.5898 7.98586C11.0524 7.45378 10.4253 7.25023 9.70834 7.37523L9.04479 6.71169C9.18479 6.65405 9.3309 6.61079 9.48313 6.5819C9.63535 6.55315 9.80764 6.53878 10 6.53878C10.8493 6.53878 11.5691 6.83391 12.1594 7.42419C12.7497 8.01447 13.0448 8.73426 13.0448 9.58357C13.0448 9.77593 13.0304 9.95357 13.0017 10.1165C12.9728 10.2794 12.9295 10.4202 12.8719 10.5388ZM15.5065 13.0996L14.875 12.5419C15.4028 12.1391 15.8715 11.6982 16.2813 11.219C16.691 10.7398 17.0417 10.1947 17.3333 9.58357C16.6389 8.18079 15.6424 7.06621 14.3438 6.23982C13.0451 5.41343 11.5972 5.00023 10 5.00023C9.59722 5.00023 9.20139 5.02801 8.8125 5.08357C8.42361 5.13912 8.04167 5.22246 7.66667 5.33357L7.01604 4.68294C7.50007 4.5003 7.99257 4.36864 8.49354 4.28794C8.99466 4.20725 9.49681 4.1669 10 4.1669C11.8088 4.1669 13.4631 4.66398 14.9631 5.65815C16.4631 6.65218 17.5651 7.96065 18.2692 9.58357C17.9711 10.2534 17.5938 10.8829 17.1371 11.4721C16.6803 12.0614 16.1367 12.6039 15.5065 13.0996ZM16.4358 17.6157L13.1923 14.3817C12.8237 14.5452 12.3662 14.6891 11.8198 14.8136C11.2733 14.938 10.6667 15.0002 10 15.0002C8.18056 15.0002 6.52618 14.5032 5.03688 13.509C3.54757 12.515 2.44556 11.2065 1.73083 9.58357C2.05445 8.84746 2.48125 8.15808 3.01125 7.51544C3.54111 6.8728 4.10681 6.33357 4.70834 5.89773L2.38458 3.5644L2.97438 2.97461L17.0256 17.0259L16.4358 17.6157ZM5.29813 6.48732C4.82049 6.82718 4.33222 7.27378 3.83334 7.82711C3.33445 8.38058 2.94556 8.96607 2.66667 9.58357C3.36111 10.9863 4.35764 12.1009 5.65625 12.9273C6.95486 13.7537 8.40278 14.1669 10 14.1669C10.4808 14.1669 10.9654 14.1202 11.4535 14.0267C11.9417 13.9332 12.3088 13.8389 12.5546 13.7438L11.1954 12.3752C11.064 12.449 10.8808 12.5096 10.6458 12.5571C10.4108 12.6046 10.1956 12.6284 10 12.6284C9.1507 12.6284 8.43091 12.3332 7.84063 11.7429C7.25035 11.1527 6.95521 10.4329 6.95521 9.58357C6.95521 9.39871 6.97896 9.19142 7.02646 8.96169C7.07396 8.73211 7.13459 8.54093 7.20834 8.38815L5.29813 6.48732Z" fill="#333333"/>
</svg>
