<svg width="14" height="14" viewBox="0 0 14 14" fill="none" xmlns="http://www.w3.org/2000/svg">
<path d="M10.4793 7.83245H1.16683C0.930718 7.83245 0.732802 7.75259 0.573079 7.59286C0.413357 7.43314 0.333496 7.23523 0.333496 6.99911C0.333496 6.763 0.413357 6.56509 0.573079 6.40536C0.732802 6.24564 0.930718 6.16578 1.16683 6.16578H10.4793L6.396 2.08245C6.22933 1.91578 6.14947 1.72134 6.15641 1.49911C6.16336 1.27689 6.25016 1.08245 6.41683 0.915781C6.5835 0.763003 6.77794 0.683142 7.00016 0.676198C7.22238 0.669253 7.41683 0.749115 7.5835 0.915781L13.0835 6.41578C13.1668 6.49911 13.2259 6.58939 13.2606 6.68661C13.2953 6.78384 13.3127 6.888 13.3127 6.99911C13.3127 7.11023 13.2953 7.21439 13.2606 7.31161C13.2259 7.40884 13.1668 7.49911 13.0835 7.58245L7.5835 13.0824C7.43072 13.2352 7.23975 13.3116 7.01058 13.3116C6.78141 13.3116 6.5835 13.2352 6.41683 13.0824C6.25016 12.9158 6.16683 12.7179 6.16683 12.4887C6.16683 12.2595 6.25016 12.0616 6.41683 11.8949L10.4793 7.83245Z" fill="#1C1B1F"/>
</svg>
