<svg width="28" height="28" viewBox="0 0 28 28" fill="none" xmlns="http://www.w3.org/2000/svg">
<circle cx="14" cy="14" r="14" fill="white"/>
<path fill-rule="evenodd" clip-rule="evenodd" d="M8.41083 8.41009C8.73626 8.08466 9.2639 8.08466 9.58934 8.41009L14.0001 12.8208L18.4108 8.41009C18.7363 8.08466 19.2639 8.08466 19.5893 8.41009C19.9148 8.73553 19.9148 9.26317 19.5893 9.58861L15.1786 13.9994L19.5893 18.4101C19.9148 18.7355 19.9148 19.2632 19.5893 19.5886C19.2639 19.914 18.7363 19.914 18.4108 19.5886L14.0001 15.1779L9.58934 19.5886C9.2639 19.914 8.73626 19.914 8.41083 19.5886C8.08539 19.2632 8.08539 18.7355 8.41083 18.4101L12.8216 13.9994L8.41083 9.5886C8.08539 9.26317 8.08539 8.73553 8.41083 8.41009Z" fill="#333333"/>
</svg>
