<svg width="88" height="24" viewBox="0 0 88 24" fill="none" xmlns="http://www.w3.org/2000/svg">
<g clip-path="url(#clip0_1185_2702)">
<path d="M16.6417 22.8682C16.6581 22.8475 16.6745 22.8267 16.6879 22.8059C16.6908 22.8 16.6953 22.7955 16.6983 22.7896C16.7117 22.7688 16.7251 22.7481 16.737 22.7273C16.74 22.7229 16.7414 22.7184 16.7444 22.714C16.7563 22.6932 16.7667 22.6739 16.7757 22.6546C16.7772 22.6517 16.7787 22.6487 16.7801 22.6442C16.7891 22.625 16.7965 22.6057 16.804 22.5879C16.804 22.5849 16.8069 22.5805 16.8084 22.576C16.8159 22.5567 16.8218 22.5389 16.8263 22.5196C16.8263 22.5152 16.8293 22.5107 16.8308 22.5063C16.8352 22.4885 16.8397 22.4707 16.8427 22.4544C16.8427 22.4499 16.8442 22.447 16.8456 22.4425C16.8486 22.4262 16.8516 22.4099 16.8531 22.3936C16.8531 22.3906 16.8531 22.3876 16.8531 22.3832C16.8546 22.3669 16.8561 22.352 16.8575 22.3372C16.8575 22.3357 16.8575 22.3327 16.8575 22.3313C16.8575 22.3164 16.8575 22.3016 16.8575 22.2882C16.8575 22.2734 16.8575 22.2616 16.8575 22.2482V22.2452C16.8575 22.2334 16.8561 22.2215 16.8546 22.2111C16.8546 22.1993 16.8516 22.1889 16.8501 22.1815C16.8456 22.1562 16.8412 22.1414 16.8412 22.1414C16.8412 22.1414 16.8412 22.137 16.8397 22.131C16.8397 22.1281 16.8397 22.1266 16.8382 22.1221C16.8382 22.1147 16.8352 22.1058 16.8337 22.0939C16.8337 22.088 16.8322 22.0836 16.8308 22.0761C16.8278 22.0598 16.8248 22.0405 16.8203 22.0183C16.8203 22.0124 16.8174 22.0064 16.8174 21.999C16.8129 21.9768 16.8084 21.9545 16.804 21.9278C16.801 21.9159 16.7995 21.9026 16.7965 21.8907C16.7921 21.8685 16.7876 21.8462 16.7816 21.8225C16.7787 21.8077 16.7757 21.7928 16.7712 21.7765C16.7638 21.7439 16.7548 21.7083 16.7474 21.6712C16.7429 21.6534 16.7385 21.6356 16.734 21.6178C16.7266 21.5852 16.7176 21.551 16.7087 21.5154C16.7027 21.4947 16.6968 21.4724 16.6923 21.4502C16.6849 21.419 16.676 21.3879 16.667 21.3567C16.6611 21.333 16.6536 21.3107 16.6477 21.2855C16.6343 21.2395 16.6209 21.1936 16.606 21.1446C16.5985 21.1179 16.5896 21.0897 16.5807 21.0616C16.5688 21.0215 16.5554 20.9815 16.542 20.9414C16.5331 20.9132 16.5241 20.885 16.5137 20.8554C16.5018 20.8183 16.4884 20.7812 16.475 20.7441C16.4646 20.7145 16.4542 20.6863 16.4437 20.6566C16.4244 20.6017 16.4036 20.5454 16.3827 20.489C16.3708 20.4564 16.3574 20.4237 16.344 20.3911C16.3276 20.3481 16.3098 20.3036 16.2919 20.2591C16.2785 20.2264 16.2651 20.1938 16.2517 20.1612C16.2339 20.1211 16.2175 20.0796 16.1981 20.0395C16.1832 20.0069 16.1699 19.9743 16.155 19.9416C16.1252 19.8779 16.0954 19.8126 16.0627 19.7473C16.0478 19.7162 16.0314 19.685 16.0165 19.6554C15.9942 19.6109 15.9704 19.5649 15.9466 19.5204C15.9287 19.4863 15.9108 19.4536 15.893 19.421C15.8692 19.378 15.8454 19.3365 15.8215 19.2934C15.8037 19.2608 15.7843 19.2297 15.765 19.197C15.7248 19.1288 15.6831 19.062 15.6384 18.9938C15.6206 18.9671 15.6027 18.9404 15.5834 18.9122C15.5536 18.8662 15.5223 18.8217 15.4911 18.7772C15.4688 18.7461 15.4464 18.7149 15.4226 18.6838C15.3914 18.6408 15.3601 18.5993 15.3273 18.5577C15.305 18.5295 15.2827 18.4999 15.2604 18.4717C15.2083 18.4079 15.1547 18.3441 15.0996 18.2818C15.0788 18.2581 15.0549 18.2344 15.0341 18.2106C14.9954 18.1676 14.9552 18.1261 14.915 18.0845C14.8882 18.0578 14.8614 18.0311 14.8332 18.0044C14.793 17.9644 14.7513 17.9258 14.7081 17.8887C14.6828 17.865 14.6575 17.8413 14.6307 17.819C14.5682 17.7656 14.5042 17.7122 14.4387 17.6618C14.4357 17.6603 14.4342 17.6588 14.4313 17.6573C14.3702 17.6099 14.3062 17.5654 14.2407 17.5224C14.2184 17.5075 14.1961 17.4897 14.1737 17.4749C14.1097 17.4319 14.0413 17.3933 13.9743 17.3533C13.949 17.3384 13.9252 17.3236 13.8999 17.3088C13.8329 17.2717 13.7614 17.2376 13.6915 17.2049C13.6632 17.1916 13.6364 17.1768 13.6081 17.1634C13.5381 17.1323 13.4652 17.1041 13.3923 17.0774C13.361 17.0655 13.3312 17.0522 13.3 17.0403C13.227 17.0151 13.1511 16.9943 13.0767 16.9721C13.0425 16.9617 13.0082 16.9498 12.974 16.9409C12.8981 16.9216 12.8192 16.9068 12.7403 16.8905C12.7031 16.8831 12.6659 16.8727 12.6287 16.8667C12.5453 16.8534 12.459 16.8445 12.3726 16.8341C12.3369 16.8297 12.3012 16.8237 12.2655 16.8208C12.1404 16.8104 12.0139 16.8044 11.8829 16.8044C11.7594 16.8044 11.6388 16.8104 11.5212 16.8193C11.5123 16.8193 11.5033 16.8193 11.4944 16.8208C11.3828 16.8297 11.2741 16.8445 11.1669 16.8608C11.1535 16.8623 11.1401 16.8653 11.1267 16.8667C11.024 16.8845 10.9228 16.9053 10.8246 16.9305C10.8097 16.935 10.7933 16.9379 10.7784 16.9424C10.6832 16.9676 10.5894 16.9958 10.4971 17.0269C10.4807 17.0329 10.4658 17.0373 10.4495 17.0433C10.3587 17.0759 10.2708 17.11 10.1845 17.1471C10.1696 17.153 10.1547 17.1604 10.1398 17.1664C10.0535 17.2049 9.97015 17.2465 9.88828 17.2895C9.87489 17.2969 9.86298 17.3028 9.85107 17.3103C9.76771 17.3562 9.68733 17.4037 9.60993 17.4527C9.601 17.4586 9.59207 17.4645 9.58314 17.4705C9.50276 17.5224 9.42386 17.5772 9.34944 17.6336C9.34497 17.6366 9.34051 17.6395 9.33604 17.644C9.29585 17.6751 9.25566 17.7063 9.21547 17.7374C9.19017 17.7567 9.16784 17.779 9.14402 17.7983C9.12169 17.8175 9.09937 17.8353 9.07704 17.8546C9.01154 17.9125 8.94605 17.9718 8.88353 18.0326C8.87609 18.04 8.86864 18.0475 8.8612 18.0549C8.80166 18.1127 8.7451 18.1735 8.68853 18.2344C8.66769 18.2566 8.64834 18.2789 8.62899 18.3011C8.58583 18.3501 8.54266 18.399 8.50247 18.4494C8.48461 18.4702 8.46823 18.491 8.45037 18.5117C8.39529 18.58 8.34171 18.6482 8.2911 18.7179C8.27919 18.7342 8.26728 18.7505 8.25537 18.7669C8.21518 18.8232 8.17499 18.8796 8.13629 18.9374C8.11992 18.9627 8.10354 18.9864 8.08717 19.0116C8.05145 19.0665 8.01721 19.1199 7.98297 19.1748C7.97107 19.1955 7.95767 19.2148 7.94576 19.2356C7.90259 19.3083 7.86091 19.3795 7.82072 19.4522C7.80882 19.4744 7.79691 19.4952 7.785 19.5174C7.75523 19.5708 7.72695 19.6257 7.70015 19.6791C7.68676 19.7043 7.67485 19.7295 7.66145 19.7548C7.63168 19.8126 7.60489 19.8705 7.57661 19.9283C7.56916 19.9446 7.56172 19.9594 7.55428 19.9758C7.52153 20.047 7.49027 20.1182 7.45901 20.1879C7.44859 20.2116 7.43966 20.2339 7.42924 20.2576C7.4084 20.308 7.38756 20.3585 7.36673 20.4074C7.35779 20.4311 7.34737 20.4534 7.33844 20.4771C7.31314 20.5409 7.28932 20.6032 7.26699 20.664C7.26253 20.6759 7.25806 20.6878 7.2536 20.6996C7.23127 20.759 7.21192 20.8168 7.19257 20.8747C7.18513 20.8969 7.17768 20.9177 7.17024 20.9399C7.15535 20.9844 7.14047 21.0289 7.12707 21.0719C7.12112 21.0912 7.11516 21.109 7.10921 21.1283C7.09135 21.1861 7.07349 21.2425 7.0586 21.2974C7.05562 21.3107 7.05116 21.3211 7.04818 21.3345C7.03627 21.3775 7.02436 21.4205 7.01246 21.4606C7.00799 21.4784 7.00353 21.4947 6.99906 21.511C6.98864 21.5481 6.97971 21.5837 6.97078 21.6178C6.9678 21.6297 6.96482 21.643 6.96185 21.6549C6.95143 21.6979 6.94101 21.7394 6.93208 21.778C6.9291 21.7899 6.92761 21.8002 6.92463 21.8121C6.91868 21.8403 6.91273 21.8655 6.90677 21.8907C6.90379 21.9026 6.90231 21.913 6.89933 21.9234C6.89337 21.9486 6.88891 21.9723 6.88444 21.9931C6.88444 21.9975 6.88295 22.0035 6.88147 22.0079C6.877 22.0331 6.87254 22.0539 6.86956 22.0717C6.86956 22.0776 6.86807 22.0821 6.86658 22.088C6.86509 22.0999 6.86212 22.1088 6.86212 22.1162C6.86212 22.1206 6.86212 22.1236 6.86063 22.1266C6.86063 22.1325 6.85914 22.137 6.85914 22.137C6.85914 22.137 6.85914 22.1399 6.85616 22.1473C6.85616 22.1533 6.85318 22.1637 6.8517 22.1755C6.8517 22.1755 6.8517 22.1755 6.8517 22.177C6.85021 22.1889 6.84872 22.2037 6.84723 22.2215C6.84723 22.2215 6.84723 22.2215 6.84723 22.223C6.84574 22.2512 6.84574 22.2838 6.84872 22.3224C6.84872 22.3239 6.84872 22.3268 6.84872 22.3283C6.84872 22.3416 6.8517 22.3565 6.85318 22.3713C6.85318 22.3743 6.85318 22.3772 6.85318 22.3787C6.85765 22.4099 6.86509 22.441 6.87402 22.4766C6.87402 22.4796 6.87551 22.4826 6.877 22.4855C6.88147 22.5018 6.88742 22.5196 6.89337 22.5374C6.89337 22.5404 6.89635 22.5434 6.89635 22.5463C6.90379 22.5641 6.90975 22.5819 6.91868 22.6012C6.91868 22.6012 6.91868 22.6012 6.91868 22.6027C6.92761 22.622 6.93654 22.6413 6.94696 22.6606C6.94845 22.665 6.95143 22.668 6.95292 22.6724C6.96333 22.6917 6.97524 22.711 6.98715 22.7303C6.98864 22.7332 6.99162 22.7377 6.99459 22.7407C7.0065 22.7599 7.0199 22.7792 7.03478 22.7985C7.03478 22.8 7.03627 22.8015 7.03776 22.803C7.05265 22.8237 7.06902 22.8445 7.08688 22.8653C7.08986 22.8697 7.09433 22.8742 7.0973 22.8786C7.11516 22.8994 7.13303 22.9201 7.15387 22.9409C7.15684 22.9439 7.16131 22.9483 7.16429 22.9513C7.18364 22.9706 7.20448 22.9913 7.2268 23.0106C7.22978 23.0136 7.23127 23.0151 7.23425 23.018C7.25806 23.0388 7.28337 23.0596 7.30867 23.0803C7.31463 23.0848 7.32058 23.0892 7.32505 23.0937C7.35184 23.1145 7.38012 23.1352 7.4084 23.156C7.41287 23.159 7.41882 23.1619 7.42329 23.1664C7.45157 23.1857 7.48134 23.2049 7.5126 23.2257C7.51707 23.2287 7.52153 23.2316 7.526 23.2331C7.56023 23.2539 7.59596 23.2747 7.63168 23.2939C7.63912 23.2984 7.64657 23.3028 7.6555 23.3073C7.69271 23.3281 7.7329 23.3473 7.77309 23.3681C7.77905 23.3711 7.785 23.374 7.79095 23.377C7.82966 23.3963 7.87133 23.4141 7.91301 23.4319C7.91897 23.4349 7.92641 23.4378 7.93236 23.4408C7.97851 23.4601 8.02614 23.4794 8.07526 23.4971C8.08568 23.5016 8.0961 23.5046 8.10801 23.509C8.15862 23.5283 8.21072 23.5461 8.2643 23.5639C8.27175 23.5669 8.2777 23.5683 8.28514 23.5713C8.33724 23.5876 8.39083 23.6054 8.4459 23.6203C8.45484 23.6232 8.46526 23.6262 8.47419 23.6292C8.53373 23.6455 8.59476 23.6618 8.65876 23.6781C8.67216 23.6811 8.68556 23.6855 8.69895 23.6885C8.76445 23.7048 8.83143 23.7196 8.90139 23.736C8.90883 23.7374 8.91628 23.7389 8.92372 23.7404C8.9907 23.7552 9.05918 23.7686 9.13063 23.7819C9.14402 23.7849 9.15593 23.7864 9.16933 23.7894C9.24375 23.8027 9.32116 23.8161 9.40005 23.8279C9.41642 23.8309 9.4328 23.8324 9.45066 23.8353C9.53253 23.8472 9.61737 23.8591 9.70371 23.8709C9.70966 23.8709 9.7171 23.8724 9.72455 23.8739C9.8079 23.8843 9.89573 23.8947 9.98504 23.9036C10.0014 23.9051 10.0178 23.9065 10.0356 23.9095C10.1279 23.9184 10.2232 23.9273 10.32 23.9347C10.3393 23.9362 10.3587 23.9377 10.3795 23.9392C10.4807 23.9466 10.5849 23.954 10.6921 23.9599C10.6966 23.9599 10.6995 23.9599 10.704 23.9599C10.8082 23.9659 10.9169 23.9703 11.0285 23.9748C11.0493 23.9748 11.0702 23.9763 11.0925 23.9777C11.2041 23.9822 11.3173 23.9852 11.4349 23.9866C11.4572 23.9866 11.481 23.9866 11.5048 23.9866C11.6269 23.9881 11.7519 23.9896 11.8814 23.9896C12.0288 23.9896 12.1717 23.9881 12.3116 23.9852C12.3265 23.9852 12.3414 23.9852 12.3563 23.9852C12.4872 23.9822 12.6138 23.9792 12.7388 23.9733C12.7582 23.9733 12.779 23.9718 12.7983 23.9703C12.9189 23.9659 13.035 23.9585 13.1481 23.9525C13.1675 23.9525 13.1869 23.9496 13.2062 23.9481C13.3178 23.9407 13.4265 23.9332 13.5322 23.9229C13.5486 23.9214 13.5649 23.9199 13.5828 23.9184C13.6885 23.908 13.7927 23.8976 13.8924 23.8873C13.9028 23.8873 13.9133 23.8843 13.9237 23.8828C14.0249 23.8709 14.1216 23.8591 14.2154 23.8442C14.2199 23.8442 14.2244 23.8442 14.2288 23.8428C14.3226 23.8294 14.4134 23.8146 14.5012 23.7997C14.5131 23.7983 14.5265 23.7953 14.5384 23.7938C14.6218 23.779 14.7007 23.7641 14.7781 23.7478C14.793 23.7449 14.8079 23.7419 14.8212 23.7389C14.8957 23.7226 14.9671 23.7063 15.0356 23.69C15.0505 23.687 15.0639 23.6826 15.0773 23.6796C15.1457 23.6618 15.2112 23.644 15.2752 23.6262C15.2872 23.6232 15.2976 23.6188 15.3095 23.6158C15.3735 23.5965 15.436 23.5772 15.4941 23.558C15.5015 23.555 15.5075 23.5535 15.5149 23.5505C15.5715 23.5313 15.6265 23.5105 15.6786 23.4912C15.6846 23.4882 15.692 23.4868 15.698 23.4838C15.7501 23.463 15.8007 23.4423 15.8483 23.42C15.8573 23.4156 15.8662 23.4126 15.8766 23.4082C15.9228 23.3874 15.9659 23.3666 16.0061 23.3459C16.015 23.3414 16.0255 23.3355 16.0344 23.331C16.0746 23.3103 16.1118 23.2895 16.149 23.2672C16.1579 23.2628 16.1654 23.2569 16.1743 23.2524C16.21 23.2316 16.2443 23.2094 16.2755 23.1871C16.283 23.1827 16.2889 23.1782 16.2964 23.1723C16.3291 23.1501 16.3589 23.1278 16.3887 23.1056C16.3931 23.1026 16.3961 23.0996 16.4006 23.0967C16.4274 23.0759 16.4527 23.0536 16.4765 23.0329C16.481 23.0284 16.4854 23.0255 16.4899 23.021C16.5137 22.9988 16.536 22.9765 16.5569 22.9543C16.5613 22.9498 16.5673 22.9439 16.5718 22.9394C16.5911 22.9187 16.6105 22.8964 16.6283 22.8756C16.6328 22.8697 16.6372 22.8653 16.6417 22.8593V22.8682Z" fill="#28335E"/>
<path d="M5.13094 11.6752C5.13094 8.05587 8.08566 5.1115 11.7162 5.1115C13.5143 5.1115 15.1934 5.822 16.4452 7.111C17.4306 8.12559 19.0546 8.1508 20.0727 7.16885C21.0909 6.1869 21.1162 4.5686 20.1308 3.55402C17.904 1.2623 14.915 0 11.7162 0C5.25597 0 0 5.23758 0 11.6752C0 15.4101 1.76985 18.7402 4.51618 20.8791C4.6948 20.2087 5.01632 19.2341 5.56112 18.2462C5.98089 17.4853 6.4721 16.8267 7.02434 16.2749C5.85436 15.0897 5.12945 13.4655 5.12945 11.6752H5.13094Z" fill="#28335E"/>
<path d="M20.8111 14.8005C19.6738 13.958 18.0677 14.1923 17.2222 15.3256C16.9885 15.6386 16.7414 15.9308 16.5703 16.1251C17.1865 16.711 17.7283 17.4274 18.1808 18.2655C18.6691 19.1689 18.9698 20.0603 19.1499 20.7204C19.4297 20.492 19.7006 20.2517 19.9596 19.9951C20.2663 19.694 20.8542 19.0235 21.338 18.3753C22.1835 17.242 21.9483 15.6415 20.8111 14.799V14.8005Z" fill="#28335E"/>
<path d="M11.9633 15.778C14.1607 15.778 15.9421 14.0029 15.9421 11.8131C15.9421 9.62337 14.1607 7.84823 11.9633 7.84823C9.76582 7.84823 7.98444 9.62337 7.98444 11.8131C7.98444 14.0029 9.76582 15.778 11.9633 15.778Z" fill="#28335E"/>
<path d="M39.3089 13.4551H37.0389C36.7918 13.4551 36.5834 13.642 36.5581 13.8868C36.5135 14.3243 36.4167 14.7382 36.2709 15.1179C36.1309 15.4813 35.9374 15.8017 35.6933 16.0702C35.4537 16.3342 35.1634 16.5449 34.8285 16.6962C34.4965 16.846 34.1006 16.9216 33.6511 16.9216C33.0303 16.9216 32.4915 16.7985 32.0524 16.5552C31.6073 16.309 31.2411 15.9767 30.9628 15.5659C30.6725 15.1387 30.4552 14.6432 30.3138 14.0944C30.1694 13.5308 30.0965 12.9478 30.0965 12.3589C30.0965 11.7701 30.1694 11.1871 30.3138 10.6235C30.4537 10.0746 30.6725 9.57922 30.9628 9.15202C31.2411 8.74115 31.6073 8.40888 32.0524 8.16265C32.4915 7.91939 33.0303 7.79628 33.6511 7.79628C34.0768 7.79628 34.4519 7.85264 34.7645 7.96389C35.0711 8.07217 35.342 8.22644 35.5698 8.42223C35.796 8.61803 35.9851 8.8524 36.1294 9.12087C36.2843 9.40715 36.4078 9.72755 36.4971 10.0702C36.5522 10.2823 36.7442 10.4306 36.9645 10.4306H39.2911C39.428 10.4306 39.5575 10.3728 39.6498 10.2719C39.7406 10.1711 39.7853 10.0361 39.7719 9.89961C39.6915 9.12087 39.4771 8.4163 39.1363 7.80518C38.7954 7.19405 38.3429 6.66748 37.7921 6.24028C37.2458 5.81754 36.6087 5.49121 35.9002 5.27019C35.1991 5.05215 34.4429 4.94238 33.654 4.94238C32.5942 4.94238 31.6267 5.1456 30.7782 5.54461C29.9327 5.94214 29.2063 6.48799 28.6184 7.16735C28.0349 7.84078 27.5809 8.63732 27.2712 9.53175C26.9631 10.4188 26.8068 11.3696 26.8068 12.3589C26.8068 13.3483 26.9631 14.3184 27.2712 15.2039C27.5809 16.0984 28.0349 16.8934 28.6184 17.5683C29.2063 18.2477 29.9342 18.7921 30.7812 19.1837C31.6296 19.5767 32.5957 19.7755 33.6555 19.7755C34.5189 19.7755 35.3227 19.6331 36.0446 19.3528C36.771 19.0709 37.4126 18.666 37.9544 18.1483C38.4932 17.6321 38.9264 17.0091 39.2434 16.3001C39.556 15.5955 39.7421 14.8094 39.7957 13.9654C39.8046 13.8334 39.757 13.7028 39.6662 13.6064C39.5754 13.51 39.4474 13.4551 39.3149 13.4551H39.3089Z" fill="#28335E"/>
<path d="M53.7982 7.16886C53.2102 6.4895 52.4838 5.94364 51.6383 5.54611C50.7884 5.14562 49.8209 4.94389 48.761 4.94389C47.7012 4.94389 46.7337 5.1471 45.8852 5.54611C45.0397 5.94364 44.3133 6.4895 43.7254 7.16886C43.1419 7.84228 42.6879 8.63882 42.3782 9.53326C42.0701 10.4203 41.9138 11.3711 41.9138 12.3604C41.9138 13.3498 42.0701 14.3199 42.3782 15.2054C42.6879 16.0999 43.1419 16.8949 43.7254 17.5698C44.3133 18.2492 45.0412 18.7936 45.8882 19.1852C46.7366 19.5782 47.7027 19.777 48.7625 19.777C49.8223 19.777 50.7884 19.5782 51.6369 19.1852C52.4838 18.7936 53.2102 18.2507 53.7997 17.5698C54.3832 16.8949 54.8357 16.0999 55.1468 15.2054C55.4549 14.3169 55.6112 13.3602 55.6112 12.3604C55.6112 11.3607 55.4549 10.4203 55.1468 9.53326C54.8372 8.63882 54.3832 7.84376 53.7997 7.16886H53.7982ZM52.0998 14.0944C51.9584 14.6448 51.741 15.1402 51.4508 15.5674C51.1724 15.9782 50.8063 16.3105 50.3612 16.5567C49.9206 16.8 49.3832 16.9231 48.7625 16.9231C48.1418 16.9231 47.603 16.8 47.1638 16.5567C46.7188 16.3105 46.3526 15.9782 46.0742 15.5674C45.784 15.1402 45.5667 14.6448 45.4252 14.0959C45.2809 13.5323 45.2079 12.9493 45.2079 12.3604C45.2079 11.7716 45.2809 11.1886 45.4252 10.625C45.5652 10.0761 45.784 9.58072 46.0742 9.15353C46.3526 8.74265 46.7188 8.41039 47.1638 8.16416C47.603 7.92089 48.1418 7.79778 48.7625 7.79778C49.3832 7.79778 49.9221 7.92089 50.3612 8.16416C50.8063 8.41039 51.1739 8.74413 51.4508 9.15353C51.741 9.58072 51.9584 10.0761 52.0998 10.6265C52.2442 11.1916 52.3171 11.7745 52.3171 12.3619C52.3171 12.9493 52.2442 13.5338 52.0998 14.0974V14.0944Z" fill="#28335E"/>
<path d="M72.0847 5.25834H68.8472C68.6417 5.25834 68.4572 5.38887 68.3902 5.58318L65.2494 14.6952L62.0253 5.58022C61.9568 5.38739 61.7752 5.25982 61.5698 5.25982H58.295C58.0286 5.25982 57.8127 5.4749 57.8127 5.74042V18.9805C57.8127 19.246 58.0286 19.4611 58.295 19.4611H60.5099C60.7764 19.4611 60.9922 19.246 60.9922 18.9805V11.4215L63.7773 19.1436C63.8457 19.335 64.0273 19.4625 64.2313 19.4625H66.1485C66.3524 19.4625 66.534 19.335 66.6025 19.1436L69.3875 11.4215V18.9805C69.3875 19.246 69.6033 19.4611 69.8698 19.4611H72.0847C72.3511 19.4611 72.567 19.246 72.567 18.9805V5.74042C72.567 5.4749 72.3511 5.25982 72.0847 5.25982V5.25834Z" fill="#28335E"/>
<path d="M87.939 5.50457C87.8541 5.35179 87.6919 5.25834 87.5177 5.25834H84.9128C84.7401 5.25834 84.5824 5.34882 84.496 5.49715L81.449 10.7214L78.3514 5.49419C78.2651 5.34734 78.1058 5.25834 77.9361 5.25834H75.2374C75.0618 5.25834 74.901 5.35327 74.8161 5.50457C74.7313 5.65735 74.7358 5.84276 74.8266 5.9911L79.7417 13.9239V18.979C79.7417 19.2445 79.9575 19.4596 80.224 19.4596H82.5505C82.817 19.4596 83.0328 19.2445 83.0328 18.979V13.9224L87.93 5.98961C88.0223 5.84128 88.0253 5.65438 87.9405 5.50309L87.939 5.50457Z" fill="#28335E"/>
</g>
<defs>
<clipPath id="clip0_1185_2702">
<rect width="88" height="24" fill="white"/>
</clipPath>
</defs>
</svg>
