<svg width="18" height="18" viewBox="0 0 18 18" fill="none" xmlns="http://www.w3.org/2000/svg">
<path d="M16.4853 17.154L10.2238 10.8925C9.72384 11.3182 9.14884 11.6477 8.49884 11.881C7.84884 12.1144 7.19568 12.231 6.53934 12.231C4.93768 12.231 3.58209 11.6766 2.47259 10.5678C1.36326 9.45895 0.808594 8.1042 0.808594 6.50353C0.808594 4.9027 1.36301 3.54678 2.47184 2.43578C3.58068 1.32495 4.93543 0.769531 6.53609 0.769531C8.13693 0.769531 9.49284 1.3242 10.6038 2.43353C11.7147 3.54303 12.2701 4.89861 12.2701 6.50028C12.2701 7.19511 12.147 7.86753 11.9008 8.51753C11.6547 9.16753 11.3316 9.72328 10.9316 10.1848L17.1931 16.4465L16.4853 17.154ZM6.53934 11.231C7.86618 11.231 8.98634 10.7743 9.89984 9.86078C10.8133 8.94745 11.2701 7.82728 11.2701 6.50028C11.2701 5.17328 10.8133 4.05311 9.89984 3.13978C8.98634 2.22628 7.86618 1.76953 6.53934 1.76953C5.21234 1.76953 4.09218 2.22628 3.17884 3.13978C2.26534 4.05311 1.80859 5.17328 1.80859 6.50028C1.80859 7.82728 2.26534 8.94745 3.17884 9.86078C4.09218 10.7743 5.21234 11.231 6.53934 11.231Z" fill="#999999"/>
</svg>
