<svg width="16" height="16" viewBox="0 0 16 16" fill="none" xmlns="http://www.w3.org/2000/svg">
<path d="M12.9896 13.4357L8.81529 9.26136C8.48195 9.54514 8.09862 9.76481 7.66529 9.92036C7.23195 10.0759 6.79651 10.1537 6.35895 10.1537C5.29117 10.1537 4.38745 9.78408 3.64779 9.04486C2.90823 8.30564 2.53845 7.40247 2.53845 6.33536C2.53845 5.26814 2.90806 4.36419 3.64729 3.62353C4.38651 2.88297 5.28967 2.5127 6.35679 2.5127C7.42401 2.5127 8.32795 2.88247 9.06862 3.62203C9.80917 4.3617 10.1795 5.26542 10.1795 6.3332C10.1795 6.79642 10.0974 7.2447 9.93329 7.67803C9.76917 8.11136 9.55379 8.48186 9.28712 8.78953L13.4615 12.964L12.9896 13.4357ZM6.35895 9.48703C7.24351 9.48703 7.99029 9.18253 8.59929 8.57353C9.20829 7.96464 9.51279 7.21786 9.51279 6.3332C9.51279 5.44853 9.20829 4.70175 8.59929 4.09286C7.99029 3.48386 7.24351 3.17936 6.35895 3.17936C5.47429 3.17936 4.72751 3.48386 4.11862 4.09286C3.50962 4.70175 3.20512 5.44853 3.20512 6.3332C3.20512 7.21786 3.50962 7.96464 4.11862 8.57353C4.72751 9.18253 5.47429 9.48703 6.35895 9.48703Z" fill="#999999"/>
</svg>
